<mxfile host="app.diagrams.net" agent="Mozilla/5.0 (Windows NT 10.0; Win64; x64) AppleWebKit/537.36 (KHTML, like Gecko) Chrome/127.0.0.0 Safari/537.36" version="24.7.6">
  <diagram name="Page-1" id="nY1du3rWZWJ77gZ2tOH7">
    <mxGraphModel dx="1723" dy="630" grid="1" gridSize="10" guides="1" tooltips="1" connect="1" arrows="1" fold="1" page="1" pageScale="1" pageWidth="850" pageHeight="1100" math="0" shadow="0">
      <root>
        <mxCell id="0" />
        <mxCell id="1" parent="0" />
        <mxCell id="9CljTarxINEsyifC3CPM-88" value="" style="rounded=0;whiteSpace=wrap;html=1;" vertex="1" parent="1">
          <mxGeometry x="34" y="190" width="896" height="610" as="geometry" />
        </mxCell>
        <mxCell id="9CljTarxINEsyifC3CPM-62" value="" style="rounded=0;whiteSpace=wrap;html=1;rotation=90;strokeColor=#6666FF;fillColor=none;" vertex="1" parent="1">
          <mxGeometry x="420" y="300" width="540" height="387" as="geometry" />
        </mxCell>
        <mxCell id="9CljTarxINEsyifC3CPM-3" value="" style="shape=actor;whiteSpace=wrap;html=1;" vertex="1" parent="1">
          <mxGeometry x="90" y="430" width="40" height="60" as="geometry" />
        </mxCell>
        <mxCell id="9CljTarxINEsyifC3CPM-10" value="" style="endArrow=classic;html=1;rounded=0;" edge="1" parent="1">
          <mxGeometry width="50" height="50" relative="1" as="geometry">
            <mxPoint x="140" y="470" as="sourcePoint" />
            <mxPoint x="200" y="470" as="targetPoint" />
          </mxGeometry>
        </mxCell>
        <mxCell id="9CljTarxINEsyifC3CPM-11" value="&lt;b&gt;USER&lt;/b&gt;" style="text;html=1;align=center;verticalAlign=middle;whiteSpace=wrap;rounded=0;" vertex="1" parent="1">
          <mxGeometry x="80" y="510" width="60" height="30" as="geometry" />
        </mxCell>
        <mxCell id="9CljTarxINEsyifC3CPM-12" value="" style="outlineConnect=0;dashed=0;verticalLabelPosition=bottom;verticalAlign=top;align=center;html=1;shape=mxgraph.aws3.application_load_balancer;fillColor=#F58534;gradientColor=none;" vertex="1" parent="1">
          <mxGeometry x="210" y="440" width="50" height="56" as="geometry" />
        </mxCell>
        <mxCell id="9CljTarxINEsyifC3CPM-13" value="&lt;b&gt;APPLICATION LOAD BALANCER&lt;/b&gt;" style="text;html=1;align=center;verticalAlign=middle;whiteSpace=wrap;rounded=0;" vertex="1" parent="1">
          <mxGeometry x="180" y="510" width="110" height="30" as="geometry" />
        </mxCell>
        <mxCell id="9CljTarxINEsyifC3CPM-17" value="" style="endArrow=classic;html=1;rounded=0;" edge="1" parent="1">
          <mxGeometry width="50" height="50" relative="1" as="geometry">
            <mxPoint x="269.9999999999999" y="469.1490427698576" as="sourcePoint" />
            <mxPoint x="340" y="470" as="targetPoint" />
          </mxGeometry>
        </mxCell>
        <mxCell id="9CljTarxINEsyifC3CPM-22" value="" style="sketch=0;outlineConnect=0;fontColor=#232F3E;gradientColor=none;strokeColor=#ffffff;fillColor=#232F3E;dashed=0;verticalLabelPosition=middle;verticalAlign=bottom;align=center;html=1;whiteSpace=wrap;fontSize=10;fontStyle=1;spacing=3;shape=mxgraph.aws4.productIcon;prIcon=mxgraph.aws4.cognito;" vertex="1" parent="1">
          <mxGeometry x="350" y="440" width="58.18" height="86" as="geometry" />
        </mxCell>
        <mxCell id="9CljTarxINEsyifC3CPM-30" value="&lt;b&gt;AMAZON COGNITO&lt;/b&gt;" style="text;html=1;align=center;verticalAlign=middle;whiteSpace=wrap;rounded=0;" vertex="1" parent="1">
          <mxGeometry x="324.09000000000003" y="510" width="110" height="30" as="geometry" />
        </mxCell>
        <mxCell id="9CljTarxINEsyifC3CPM-34" value="" style="rounded=0;whiteSpace=wrap;html=1;strokeColor=#00CC00;" vertex="1" parent="1">
          <mxGeometry x="545.92" y="276" width="130" height="130" as="geometry" />
        </mxCell>
        <mxCell id="9CljTarxINEsyifC3CPM-35" value="" style="rounded=0;whiteSpace=wrap;html=1;strokeColor=#00CC00;" vertex="1" parent="1">
          <mxGeometry x="545.92" y="571" width="130" height="134" as="geometry" />
        </mxCell>
        <mxCell id="9CljTarxINEsyifC3CPM-41" value="&lt;b&gt;PRIVATE SUBNET 2&lt;/b&gt;" style="text;html=1;align=center;verticalAlign=middle;whiteSpace=wrap;rounded=0;" vertex="1" parent="1">
          <mxGeometry x="714" y="705" width="130" height="30" as="geometry" />
        </mxCell>
        <mxCell id="9CljTarxINEsyifC3CPM-42" value="&lt;b&gt;PRIVATE SUBNET 1&lt;/b&gt;" style="text;html=1;align=center;verticalAlign=middle;whiteSpace=wrap;rounded=0;" vertex="1" parent="1">
          <mxGeometry x="714" y="410" width="130" height="30" as="geometry" />
        </mxCell>
        <mxCell id="9CljTarxINEsyifC3CPM-45" value="&lt;b&gt;PUBLIC SUBNET 1&lt;/b&gt;" style="text;html=1;align=center;verticalAlign=middle;whiteSpace=wrap;rounded=0;" vertex="1" parent="1">
          <mxGeometry x="545.92" y="410" width="130" height="30" as="geometry" />
        </mxCell>
        <mxCell id="9CljTarxINEsyifC3CPM-46" value="&lt;b&gt;PUBLIC SUBNET 2&lt;/b&gt;" style="text;html=1;align=center;verticalAlign=middle;whiteSpace=wrap;rounded=0;" vertex="1" parent="1">
          <mxGeometry x="545.92" y="705" width="130" height="30" as="geometry" />
        </mxCell>
        <mxCell id="9CljTarxINEsyifC3CPM-47" value="" style="sketch=0;outlineConnect=0;fontColor=#232F3E;gradientColor=none;fillColor=#8C4FFF;strokeColor=none;dashed=0;verticalLabelPosition=bottom;verticalAlign=top;align=center;html=1;fontSize=12;fontStyle=0;aspect=fixed;pointerEvents=1;shape=mxgraph.aws4.route_table;" vertex="1" parent="1">
          <mxGeometry x="591.92" y="459.97" width="38" height="37.03" as="geometry" />
        </mxCell>
        <mxCell id="9CljTarxINEsyifC3CPM-48" value="&lt;b&gt;AUTOSCALING&lt;/b&gt;" style="sketch=0;outlineConnect=0;fontColor=#232F3E;gradientColor=none;strokeColor=#232F3E;fillColor=#ffffff;dashed=0;verticalLabelPosition=bottom;verticalAlign=top;align=center;html=1;fontSize=12;fontStyle=0;aspect=fixed;shape=mxgraph.aws4.resourceIcon;resIcon=mxgraph.aws4.auto_scaling;" vertex="1" parent="1">
          <mxGeometry x="749" y="439" width="60" height="60" as="geometry" />
        </mxCell>
        <mxCell id="9CljTarxINEsyifC3CPM-49" value="&lt;b&gt;ROUTE TABLES&lt;/b&gt;" style="text;html=1;align=center;verticalAlign=middle;whiteSpace=wrap;rounded=0;" vertex="1" parent="1">
          <mxGeometry x="555.92" y="497" width="110" height="30" as="geometry" />
        </mxCell>
        <mxCell id="9CljTarxINEsyifC3CPM-51" value="Public subnet" style="points=[[0,0],[0.25,0],[0.5,0],[0.75,0],[1,0],[1,0.25],[1,0.5],[1,0.75],[1,1],[0.75,1],[0.5,1],[0.25,1],[0,1],[0,0.75],[0,0.5],[0,0.25]];outlineConnect=0;gradientColor=none;html=1;whiteSpace=wrap;fontSize=12;fontStyle=0;container=1;pointerEvents=0;collapsible=0;recursiveResize=0;shape=mxgraph.aws4.group;grIcon=mxgraph.aws4.group_security_group;grStroke=0;strokeColor=#7AA116;fillColor=#F2F6E8;verticalAlign=top;align=left;spacingLeft=30;fontColor=#248814;dashed=0;" vertex="1" parent="1">
          <mxGeometry x="545.92" y="571" width="130" height="134" as="geometry" />
        </mxCell>
        <mxCell id="9CljTarxINEsyifC3CPM-54" value="Public subnet" style="points=[[0,0],[0.25,0],[0.5,0],[0.75,0],[1,0],[1,0.25],[1,0.5],[1,0.75],[1,1],[0.75,1],[0.5,1],[0.25,1],[0,1],[0,0.75],[0,0.5],[0,0.25]];outlineConnect=0;gradientColor=none;html=1;whiteSpace=wrap;fontSize=12;fontStyle=0;container=1;pointerEvents=0;collapsible=0;recursiveResize=0;shape=mxgraph.aws4.group;grIcon=mxgraph.aws4.group_security_group;grStroke=0;strokeColor=#7AA116;fillColor=#F2F6E8;verticalAlign=top;align=left;spacingLeft=30;fontColor=#248814;dashed=0;" vertex="1" parent="1">
          <mxGeometry x="545.92" y="276" width="130" height="130" as="geometry" />
        </mxCell>
        <mxCell id="9CljTarxINEsyifC3CPM-36" value="" style="rounded=0;whiteSpace=wrap;html=1;strokeColor=#FF6666;fillColor=#FBFBFB;" vertex="1" parent="1">
          <mxGeometry x="714" y="571" width="130" height="130" as="geometry" />
        </mxCell>
        <mxCell id="9CljTarxINEsyifC3CPM-57" value="Private subnet" style="points=[[0,0],[0.25,0],[0.5,0],[0.75,0],[1,0],[1,0.25],[1,0.5],[1,0.75],[1,1],[0.75,1],[0.5,1],[0.25,1],[0,1],[0,0.75],[0,0.5],[0,0.25]];outlineConnect=0;gradientColor=none;html=1;whiteSpace=wrap;fontSize=12;fontStyle=0;container=1;pointerEvents=0;collapsible=0;recursiveResize=0;shape=mxgraph.aws4.group;grIcon=mxgraph.aws4.group_security_group;grStroke=0;strokeColor=#00A4A6;fillColor=#E6F6F7;verticalAlign=top;align=left;spacingLeft=30;fontColor=#147EBA;dashed=0;" vertex="1" parent="1">
          <mxGeometry x="714" y="571" width="130" height="130" as="geometry" />
        </mxCell>
        <mxCell id="9CljTarxINEsyifC3CPM-39" value="&lt;b&gt;INSTANCE&lt;/b&gt;" style="sketch=0;outlineConnect=0;fontColor=#232F3E;gradientColor=none;strokeColor=#232F3E;fillColor=#FBFBFB;dashed=0;verticalLabelPosition=bottom;verticalAlign=top;align=center;html=1;fontSize=12;fontStyle=0;aspect=fixed;shape=mxgraph.aws4.resourceIcon;resIcon=mxgraph.aws4.instances;" vertex="1" parent="1">
          <mxGeometry x="756.5" y="611" width="45" height="45" as="geometry" />
        </mxCell>
        <mxCell id="9CljTarxINEsyifC3CPM-59" value="" style="rounded=0;whiteSpace=wrap;html=1;strokeColor=#FF6666;fillColor=#FBFBFB;" vertex="1" parent="1">
          <mxGeometry x="714" y="276" width="130" height="130" as="geometry" />
        </mxCell>
        <mxCell id="9CljTarxINEsyifC3CPM-60" value="Private subnet" style="points=[[0,0],[0.25,0],[0.5,0],[0.75,0],[1,0],[1,0.25],[1,0.5],[1,0.75],[1,1],[0.75,1],[0.5,1],[0.25,1],[0,1],[0,0.75],[0,0.5],[0,0.25]];outlineConnect=0;gradientColor=none;html=1;whiteSpace=wrap;fontSize=12;fontStyle=0;container=1;pointerEvents=0;collapsible=0;recursiveResize=0;shape=mxgraph.aws4.group;grIcon=mxgraph.aws4.group_security_group;grStroke=0;strokeColor=#00A4A6;fillColor=#E6F6F7;verticalAlign=top;align=left;spacingLeft=30;fontColor=#147EBA;dashed=0;" vertex="1" parent="1">
          <mxGeometry x="714" y="276" width="130" height="130" as="geometry" />
        </mxCell>
        <mxCell id="9CljTarxINEsyifC3CPM-61" value="&lt;b&gt;INSTANCE&lt;/b&gt;" style="sketch=0;outlineConnect=0;fontColor=#232F3E;gradientColor=none;strokeColor=#232F3E;fillColor=#FBFBFB;dashed=0;verticalLabelPosition=bottom;verticalAlign=top;align=center;html=1;fontSize=12;fontStyle=0;aspect=fixed;shape=mxgraph.aws4.resourceIcon;resIcon=mxgraph.aws4.instances;" vertex="1" parent="1">
          <mxGeometry x="756.5" y="316" width="45" height="45" as="geometry" />
        </mxCell>
        <mxCell id="9CljTarxINEsyifC3CPM-65" value="&lt;b&gt;AVAILABILITY ZONE US-WEST-2A&lt;/b&gt;" style="text;html=1;align=center;verticalAlign=middle;whiteSpace=wrap;rounded=0;" vertex="1" parent="1">
          <mxGeometry x="544" y="246" width="280" height="30" as="geometry" />
        </mxCell>
        <mxCell id="9CljTarxINEsyifC3CPM-68" value="&lt;b&gt;AVAILABILITY ZONE US-WEST-2B&lt;/b&gt;" style="text;html=1;align=center;verticalAlign=middle;whiteSpace=wrap;rounded=0;" vertex="1" parent="1">
          <mxGeometry x="546.92" y="543" width="280" height="30" as="geometry" />
        </mxCell>
        <mxCell id="9CljTarxINEsyifC3CPM-69" value="" style="endArrow=classic;html=1;rounded=0;entryX=0.493;entryY=1.008;entryDx=0;entryDy=0;entryPerimeter=0;" edge="1" parent="1">
          <mxGeometry width="50" height="50" relative="1" as="geometry">
            <mxPoint x="408.18" y="467.59" as="sourcePoint" />
            <mxPoint x="496.4838399999998" y="468.40524000000005" as="targetPoint" />
          </mxGeometry>
        </mxCell>
        <mxCell id="9CljTarxINEsyifC3CPM-75" value="" style="sketch=0;outlineConnect=0;fontColor=#232F3E;gradientColor=none;fillColor=#ED7100;strokeColor=none;dashed=0;verticalLabelPosition=bottom;verticalAlign=top;align=center;html=1;fontSize=12;fontStyle=0;aspect=fixed;pointerEvents=1;shape=mxgraph.aws4.elastic_ip_address;rotation=-180;" vertex="1" parent="1">
          <mxGeometry x="493.9999999999999" y="283.34000000000003" width="40" height="16.66" as="geometry" />
        </mxCell>
        <mxCell id="9CljTarxINEsyifC3CPM-80" value="" style="sketch=0;outlineConnect=0;fontColor=#232F3E;gradientColor=none;fillColor=#8C4FFF;strokeColor=none;dashed=0;verticalLabelPosition=bottom;verticalAlign=top;align=center;html=1;fontSize=12;fontStyle=0;aspect=fixed;pointerEvents=1;shape=mxgraph.aws4.nat_gateway;" vertex="1" parent="1">
          <mxGeometry x="690" y="346.33" width="24" height="24" as="geometry" />
        </mxCell>
        <mxCell id="9CljTarxINEsyifC3CPM-81" value="" style="rounded=0;whiteSpace=wrap;html=1;fillColor=none;" vertex="1" parent="1">
          <mxGeometry x="514" y="249" width="350" height="191" as="geometry" />
        </mxCell>
        <mxCell id="9CljTarxINEsyifC3CPM-82" value="" style="rounded=0;whiteSpace=wrap;html=1;fillColor=none;" vertex="1" parent="1">
          <mxGeometry x="514" y="538" width="350" height="191" as="geometry" />
        </mxCell>
        <mxCell id="9CljTarxINEsyifC3CPM-87" value="" style="sketch=0;outlineConnect=0;fontColor=#232F3E;gradientColor=none;fillColor=#8C4FFF;strokeColor=none;dashed=0;verticalLabelPosition=bottom;verticalAlign=top;align=center;html=1;fontSize=12;fontStyle=0;aspect=fixed;pointerEvents=1;shape=mxgraph.aws4.internet_gateway;" vertex="1" parent="1">
          <mxGeometry x="520" y="346.33" width="24" height="24" as="geometry" />
        </mxCell>
      </root>
    </mxGraphModel>
  </diagram>
</mxfile>
